<svg width="169" height="45" viewBox="0 0 169 45" fill="none" xmlns="http://www.w3.org/2000/svg">
<path d="M61.1785 33L54.0527 8.09618H59.8044L63.9267 25.4H64.1334L68.6812 8.09618H73.6061L78.1418 25.4364H78.3607L82.4829 8.09618H88.2346L81.1088 33H75.9773L71.2349 16.7177H71.0403L66.31 33H61.1785ZM94.7659 22.2019V33H89.5857V8.09618H94.62V17.6175H94.8389C95.2604 16.515 95.9414 15.6516 96.8818 15.0274C97.8222 14.3951 99.0017 14.0789 100.42 14.0789C101.717 14.0789 102.848 14.3627 103.813 14.9301C104.786 15.4895 105.54 16.2961 106.075 17.35C106.618 18.3958 106.885 19.6482 106.877 21.1075V33H101.697V22.0316C101.705 20.8805 101.413 19.9847 100.822 19.3442C100.238 18.7038 99.4192 18.3836 98.3653 18.3836C97.66 18.3836 97.0358 18.5336 96.4927 18.8335C95.9576 19.1335 95.5361 19.5712 95.228 20.1468C94.9281 20.7143 94.774 21.3993 94.7659 22.2019ZM109.584 33V14.3221H114.764V33H109.584ZM112.187 11.9144C111.416 11.9144 110.756 11.6591 110.204 11.1484C109.661 10.6295 109.39 10.0094 109.39 9.28787C109.39 8.57448 109.661 7.96242 110.204 7.4517C110.756 6.93287 111.416 6.67345 112.187 6.67345C112.957 6.67345 113.613 6.93287 114.156 7.4517C114.708 7.96242 114.983 8.57448 114.983 9.28787C114.983 10.0094 114.708 10.6295 114.156 11.1484C113.613 11.6591 112.957 11.9144 112.187 11.9144ZM133.085 19.6482L128.343 19.9401C128.261 19.5348 128.087 19.17 127.82 18.8457C127.552 18.5133 127.2 18.2498 126.762 18.0553C126.332 17.8526 125.817 17.7513 125.217 17.7513C124.415 17.7513 123.738 17.9215 123.187 18.262C122.635 18.5944 122.36 19.0402 122.36 19.5996C122.36 20.0455 122.538 20.4224 122.895 20.7305C123.252 21.0385 123.864 21.2858 124.731 21.4723L128.112 22.1532C129.927 22.5261 131.281 23.126 132.173 23.9529C133.065 24.7798 133.511 25.8661 133.511 27.2118C133.511 28.4359 133.15 29.5101 132.428 30.4342C131.715 31.3584 130.734 32.0799 129.486 32.5987C128.245 33.1094 126.814 33.3648 125.193 33.3648C122.721 33.3648 120.751 32.85 119.283 31.8205C117.824 30.7828 116.969 29.3722 116.718 27.5888L121.813 27.3212C121.967 28.0752 122.34 28.6507 122.931 29.048C123.523 29.4371 124.281 29.6317 125.205 29.6317C126.113 29.6317 126.843 29.4574 127.394 29.1088C127.953 28.7521 128.237 28.2941 128.245 27.7347C128.237 27.2645 128.039 26.8794 127.649 26.5795C127.26 26.2714 126.66 26.0363 125.85 25.8742L122.615 25.2297C120.791 24.8649 119.433 24.2326 118.542 23.3327C117.658 22.4329 117.216 21.2858 117.216 19.8914C117.216 18.6917 117.54 17.658 118.189 16.7906C118.846 15.9232 119.766 15.2544 120.949 14.7842C122.141 14.314 123.535 14.0789 125.132 14.0789C127.491 14.0789 129.348 14.5775 130.702 15.5746C132.064 16.5717 132.858 17.9296 133.085 19.6482ZM135.403 40.0042V14.3221H140.51V17.4594H140.741C140.968 16.9568 141.296 16.4461 141.726 15.9273C142.164 15.4003 142.731 14.9626 143.428 14.614C144.134 14.2573 145.009 14.0789 146.055 14.0789C147.417 14.0789 148.673 14.4356 149.825 15.149C150.976 15.8543 151.896 16.9203 152.585 18.3471C153.274 19.7658 153.619 21.5452 153.619 23.6854C153.619 25.7688 153.282 27.528 152.609 28.9629C151.945 30.3896 151.037 31.4719 149.885 32.2096C148.742 32.9392 147.462 33.304 146.043 33.304C145.038 33.304 144.182 33.1378 143.477 32.8054C142.78 32.4731 142.208 32.0556 141.763 31.553C141.317 31.0422 140.976 30.5275 140.741 30.0086H140.583V40.0042H135.403ZM140.474 23.6611C140.474 24.7717 140.628 25.7404 140.936 26.5673C141.244 27.3942 141.69 28.0387 142.273 28.5008C142.857 28.9548 143.566 29.1817 144.401 29.1817C145.244 29.1817 145.958 28.9507 146.541 28.4886C147.125 28.0184 147.567 27.3699 147.867 26.543C148.175 25.708 148.329 24.7474 148.329 23.6611C148.329 22.5829 148.179 21.6344 147.879 20.8156C147.579 19.9968 147.137 19.3564 146.554 18.8943C145.97 18.4322 145.252 18.2012 144.401 18.2012C143.558 18.2012 142.845 18.4241 142.261 18.87C141.685 19.3159 141.244 19.9482 140.936 20.767C140.628 21.5858 140.474 22.5504 140.474 23.6611ZM155.702 33V14.3221H160.724V17.581H160.919C161.259 16.4218 161.831 15.5463 162.634 14.9545C163.436 14.3546 164.36 14.0546 165.406 14.0546C165.665 14.0546 165.945 14.0708 166.245 14.1033C166.545 14.1357 166.809 14.1803 167.036 14.237V18.8335C166.792 18.7606 166.456 18.6957 166.026 18.639C165.597 18.5822 165.203 18.5538 164.847 18.5538C164.085 18.5538 163.404 18.72 162.804 19.0524C162.212 19.3767 161.742 19.8306 161.393 20.4143C161.053 20.998 160.883 21.6709 160.883 22.4329V33H155.702Z" fill="white"/>
<path d="M1 26.9399V12.5329C1.1044 6.37338 6.58458 3.73918 9.97828 3.76342C15.6506 3.79822 28.3942 3.84694 33.99 3.76342C42.0287 3.64191 43.8034 10.0748 43.8034 12.6373V27.8795C43.0518 34.8116 36.9131 36.649 33.99 36.649L21.7753 36.8578C19.2698 38.7718 13.9854 42.6307 13.2146 43.2261C12.2751 43.9519 11.8575 44.3745 11.2311 44.3745C10.73 44.3745 10.6047 43.8177 10.6047 43.5393V36.8578C3.00445 36.3567 1 30.0669 1 26.9399Z" fill="#4EC6BD" stroke="#4FC8BF" stroke-width="0.208797"/>
</svg>
