<svg width="803" height="269" viewBox="0 0 803 269" fill="none" xmlns="http://www.w3.org/2000/svg">
<path d="M113.055 0.301459C87.4686 3.41636 67.7224 11.0924 48.6992 25.3875C42.9144 29.7261 30.288 42.3526 26.5056 47.4699C21.2214 54.7009 17.6615 60.2632 17.6615 61.2088C17.6615 62.1544 18.5515 62.21 33.0135 62.21C48.3655 62.21 48.3655 62.21 55.2071 55.6465C62.9944 48.193 68.2786 44.2438 76.7333 39.5158C87.7467 33.4529 99.0938 29.6705 110.775 28.2799C117.116 27.5012 133.413 27.6681 139.198 28.558C154.884 31.0054 167.177 35.6778 180.637 44.2994C186.144 47.8593 190.983 52.031 197.046 58.4833C219.295 82.1788 227.639 114.051 220.074 146.145C216.292 162.387 207.948 177.739 195.822 190.866C192.541 194.426 188.758 198.264 187.479 199.377C185.087 201.379 185.087 201.379 185.087 218.901C185.087 228.523 184.92 236.311 184.698 236.199C184.42 236.088 182.362 235.142 180.081 234.03C177.801 232.918 173.684 230.915 170.903 229.636C168.178 228.356 161.948 225.353 157.109 222.905C148.376 218.567 148.376 218.567 144.315 219.568C138.864 220.959 125.237 222.071 119.118 221.682C104.601 220.68 92.419 217.454 80.7938 211.558C69.1686 205.662 64.1068 201.769 53.5384 190.7C40.5783 177.183 32.9023 163.11 28.8418 145.645C27.0618 138.024 26.6725 133.797 26.8393 122.005C26.9506 112.327 27.1174 110.046 28.3968 104.484C30.2323 96.1958 33.0691 87.5742 35.9059 81.6782C37.1296 79.0639 37.964 76.7833 37.7415 76.5052C37.519 76.2827 31.1223 76.1715 23.5576 76.2271C9.76302 76.394 9.76302 76.394 8.14995 80.2319C1.58641 95.6396 -1.41724 119.001 0.640821 138.414C1.14143 143.142 1.80891 147.647 2.0314 148.426C2.30952 149.205 2.81012 151.318 3.19949 153.154C4.47882 159.829 8.37244 170.731 12.3773 178.907C24.6144 203.938 44.3606 224.018 68.5567 236.199C80.905 242.373 94.8665 246.434 108.605 247.88C116.893 248.715 138.92 248.27 143.425 247.157C144.649 246.879 154.773 251.496 184.92 266.236C188.313 267.849 190.538 268.572 193.431 268.85C199.216 269.406 202.497 268.461 205.668 265.235C210.118 260.84 210.173 260.229 210.173 236.199C210.118 215.452 210.118 215.452 213.622 211.781C226.36 198.376 235.649 183.858 241.211 168.728C244.604 159.495 247.051 149.817 248.22 141.473C248.831 137.134 249.332 119.168 248.943 115.052C247.608 99.9225 246.384 93.9709 241.545 80.1763C238.986 72.7228 233.09 60.8751 228.918 54.7565C220.964 42.9644 210.618 32.0623 199.827 24.1082C192.04 18.379 178.913 11.148 172.572 9.08992C171.348 8.70056 168.957 7.81059 167.288 7.19873C162.838 5.47441 152.826 2.91575 146.429 1.91453C143.37 1.41392 139.365 0.746444 137.474 0.468328C134.303 -0.0322804 116.782 -0.19915 113.055 0.301459Z" fill="#4FC8BF"/>
<path d="M171.904 70.9427C171.237 71.054 169.624 72.1108 168.344 73.2789C165.953 75.3926 165.953 75.3926 167.454 78.73C169.902 84.2366 170.681 88.7421 170.347 95.7506C170.236 99.1993 169.957 102.87 169.791 103.927C169.624 104.984 169.234 107.765 168.901 110.046C167.566 119.613 163.839 131.183 160.112 137.579C157.887 141.473 153.27 146.479 150.934 147.703C146.707 149.872 140.755 148.036 138.308 143.753C137.14 141.751 136.973 140.805 137.028 135.632C137.14 129.514 138.419 123.284 141.423 114.496C144.426 105.818 145.706 100.367 145.316 98.0868C143.926 89.2427 133.914 87.2403 126.126 94.3044C119.34 100.367 114.334 110.268 110.274 125.509C107.771 134.798 106.658 137.301 101.541 144.977C98.4816 149.483 95.7005 151.819 91.9737 152.876C88.5807 153.821 85.8552 153.209 83.4078 150.929C81.3497 149.093 81.3497 149.093 81.4053 142.474C81.4053 136.244 81.5722 135.466 84.2421 126.733C85.7996 121.671 87.6351 115.163 88.3026 112.271C88.9701 109.378 89.8044 105.985 90.1382 104.817C90.4719 103.594 90.8056 99.6999 90.8056 96.1956C90.8056 88.8534 90.0269 86.3503 86.4114 82.3455C82.0172 77.5062 73.785 76.06 67.6664 79.0637C63.2166 81.233 62.9941 81.5667 64.3846 85.0154C66.4427 90.2439 66.0533 95.1388 62.3822 109.211C60.6579 115.942 58.8779 123.062 58.4886 125.064C58.0436 127.066 57.3205 130.181 56.9311 132.017C55.7631 136.912 55.3181 147.981 56.0412 152.876C57.543 162.61 63.4947 170.453 72.9506 175.125C80.1816 178.74 87.6351 179.019 96.2567 175.959C101.875 173.957 111.275 166.503 116.782 159.55C118.784 157.047 118.784 157.047 119.452 158.716C120.453 161.275 128.741 169.062 132.356 170.842C139.754 174.402 148.153 174.068 156.385 169.952C160.056 168.116 162.003 166.559 167.065 161.553C173.35 155.212 174.463 153.766 178.134 147.035C182.473 139.025 186.589 125.732 187.924 115.33C189.092 106.375 187.757 90.8002 185.143 83.2911C183.585 78.73 181.305 74.2245 179.469 72.2777C178.19 70.8315 177.522 70.5533 175.52 70.609C174.185 70.6646 172.572 70.8315 171.904 70.9427Z" fill="#4FC8BF"/>
<path d="M303.32 190.793L271.026 77.9285H297.093L315.775 156.349H316.712L337.323 77.9285H359.642L380.198 156.515H381.19L399.872 77.9285H425.939L393.645 190.793H370.388L348.896 117.001H348.014L326.576 190.793H303.32ZM458.643 141.856V190.793H435.166V77.9285H457.981V121.079H458.973C460.884 116.083 463.97 112.17 468.232 109.341C472.493 106.475 477.839 105.042 484.268 105.042C490.147 105.042 495.272 106.328 499.644 108.9C504.053 111.435 507.47 115.091 509.894 119.867C512.356 124.606 513.568 130.283 513.532 136.896V190.793H490.055V141.084C490.092 135.867 488.769 131.807 486.087 128.905C483.442 126.002 479.731 124.551 474.955 124.551C471.759 124.551 468.93 125.231 466.468 126.59C464.043 127.95 462.133 129.934 460.737 132.542C459.377 135.114 458.679 138.218 458.643 141.856ZM528.903 190.793V106.145H552.38V190.793H528.903ZM540.697 95.2329C537.207 95.2329 534.212 94.0756 531.714 91.761C529.252 89.4097 528.022 86.5991 528.022 83.3293C528.022 80.0962 529.252 77.3223 531.714 75.0077C534.212 72.6564 537.207 71.4807 540.697 71.4807C544.187 71.4807 547.163 72.6564 549.625 75.0077C552.123 77.3223 553.372 80.0962 553.372 83.3293C553.372 86.5991 552.123 89.4097 549.625 91.761C547.163 94.0756 544.187 95.2329 540.697 95.2329ZM638.513 130.283L617.02 131.605C616.652 129.768 615.862 128.115 614.65 126.645C613.438 125.139 611.839 123.945 609.856 123.063C607.908 122.145 605.575 121.686 602.857 121.686C599.219 121.686 596.152 122.457 593.653 124C591.155 125.506 589.906 127.527 589.906 130.062C589.906 132.083 590.714 133.791 592.331 135.187C593.947 136.584 596.721 137.704 600.652 138.549L615.973 141.635C624.202 143.325 630.338 146.044 634.379 149.791C638.421 153.539 640.441 158.462 640.441 164.561C640.441 170.109 638.806 174.977 635.537 179.165C632.304 183.353 627.858 186.623 622.2 188.974C616.579 191.289 610.094 192.446 602.746 192.446C591.541 192.446 582.613 190.113 575.963 185.447C569.35 180.745 565.474 174.352 564.335 166.269L587.426 165.057C588.124 168.474 589.814 171.082 592.496 172.882C595.178 174.646 598.613 175.528 602.802 175.528C606.916 175.528 610.223 174.738 612.721 173.158C615.256 171.541 616.542 169.466 616.579 166.931C616.542 164.8 615.642 163.054 613.879 161.695C612.115 160.299 609.396 159.234 605.722 158.499L591.063 155.578C582.797 153.925 576.643 151.059 572.601 146.981C568.597 142.903 566.595 137.704 566.595 131.385C566.595 125.947 568.064 121.263 571.003 117.332C573.979 113.401 578.149 110.37 583.513 108.239C588.914 106.108 595.233 105.042 602.471 105.042C613.162 105.042 621.576 107.302 627.711 111.821C633.883 116.34 637.484 122.494 638.513 130.283ZM652.121 222.536V106.145H675.267V120.363H676.314C677.343 118.085 678.83 115.77 680.778 113.419C682.762 111.031 685.333 109.047 688.493 107.467C691.689 105.851 695.657 105.042 700.397 105.042C706.569 105.042 712.264 106.659 717.481 109.892C722.698 113.088 726.868 117.92 729.991 124.386C733.113 130.815 734.675 138.88 734.675 148.579C734.675 158.021 733.15 165.994 730.101 172.497C727.088 178.963 722.973 183.868 717.756 187.211C712.576 190.517 706.771 192.171 700.342 192.171C695.786 192.171 691.91 191.418 688.713 189.911C685.554 188.405 682.964 186.513 680.943 184.235C678.922 181.92 677.379 179.587 676.314 177.236H675.597V222.536H652.121ZM675.101 148.469C675.101 153.502 675.799 157.893 677.196 161.64C678.592 165.387 680.612 168.308 683.258 170.402C685.903 172.46 689.118 173.489 692.902 173.489C696.723 173.489 699.956 172.441 702.601 170.347C705.246 168.216 707.249 165.277 708.608 161.53C710.004 157.746 710.702 153.392 710.702 148.469C710.702 143.582 710.023 139.284 708.663 135.573C707.304 131.862 705.301 128.96 702.656 126.866C700.011 124.772 696.759 123.725 692.902 123.725C689.081 123.725 685.848 124.735 683.203 126.756C680.594 128.776 678.592 131.642 677.196 135.353C675.799 139.063 675.101 143.435 675.101 148.469ZM747.222 190.793V106.145H769.982V120.914H770.864C772.407 115.66 774.997 111.692 778.635 109.01C782.272 106.292 786.46 104.932 791.2 104.932C792.375 104.932 793.643 105.006 795.002 105.153C796.362 105.3 797.556 105.502 798.584 105.759V126.59C797.482 126.26 795.957 125.966 794.01 125.709C792.063 125.451 790.281 125.323 788.665 125.323C785.211 125.323 782.125 126.076 779.406 127.582C776.724 129.052 774.593 131.109 773.014 133.755C771.47 136.4 770.699 139.449 770.699 142.903V190.793H747.222Z" fill="white"/>
</svg>
